# xmcd
#
# Track frame offsets:
#	150
#	20460
#	39771
#	63672
#	78831
#	95919
#	114878
#	130563
#	143307
#	167774
#	187899
#
# Disc length: 2709 seconds
#
# Revision: 0
# Processed by: cddbd v1.4PL0 Copyright (c) Steve Scherf et al.
# Submitted via: EasyCDDAExtractor 4.6.9.1
#
DISCID=7c0a930b
DTITLE=Rowe, Steve - No Refund, No Return
DYEAR=2002
DGENRE=Blues
TTITLE0=Yes You Do
TTITLE1=Four in the Morning
TTITLE2=Same Old Song
TTITLE3=If My Cat Could Talk
TTITLE4=No Refund, No Return
TTITLE5=Caviar Blues
TTITLE6=Gone too Long
TTITLE7=Stop this Dance
TTITLE8=Wasting no More Time
TTITLE9=Too Much of a Good Thing
TTITLE10=Blues Get Loose
EXTD=www.steveroweblues.com\n
EXTT0=
EXTT1=
EXTT2=
EXTT3=
EXTT4=
EXTT5=
EXTT6=
EXTT7=
EXTT8=
EXTT9=
EXTT10=
PLAYORDER=
